# xmcd CD database file
#
# Track frame offsets:
#	150
#	17309
#	40038
#	61398
#	76659
#	95343
#	114422
#	141679
#	159616
#	184445
#	199673
#	223113
#	243861
#	256375
#	273806
#	283246
#	303170
#	322653
#	346983
#
# Disc length: 4807 seconds
#
# Revision: 0
# Processed by: cddbd v1.4PL0 Copyright (c) Steve Scherf et al.
# Submitted via: Feurio! 1.65.5ß - http://www.feurio.com
#
DISCID=0712c513
DTITLE=STONI BLUES BAND - Best of STONI
DYEAR=1900
DGENRE=
TTITLE0=Soul to Soul
TTITLE1=Telefon boogie
TTITLE2=Akaratos lány
TTITLE3=Horgász blues
TTITLE4=Talisman
TTITLE5=Kamion
TTITLE6=Ice Cream
TTITLE7=Fekete blues
TTITLE8=Bonnie and Clyde
TTITLE9=Nem iszom
TTITLE10=Úton
TTITLE11=Pumpálni kell
TTITLE12=Rám kattan a zár
TTITLE13=Sírjál mindenért
TTITLE14=Áfium
TTITLE15=Sûrü sötét
TTITLE16=Monalisa
TTITLE17=Búcsú a XX. századtól
TTITLE18=Új ezer év
EXTD=
EXTT0=
EXTT1=
EXTT2=
EXTT3=
EXTT4=
EXTT5=
EXTT6=
EXTT7=
EXTT8=
EXTT9=
EXTT10=
EXTT11=
EXTT12=
EXTT13=
EXTT14=
EXTT15=
EXTT16=
EXTT17=
EXTT18=
PLAYORDER=
